<svg width="24" height="24" viewBox="0 0 18 18" fill="none" xmlns="http://www.w3.org/2000/svg">
<path d="M12.75 16.13C11.92 16.13 11.25 15.29 11.25 14.25C11.25 13.22 11.92 12.38 12.75 12.38C13.58 12.38 14.25 13.22 14.25 14.25C14.25 15.29 13.58 16.13 12.75 16.13ZM9 8.25C7.76 8.25 6.75 7.41 6.75 6.38C6.75 5.34 7.76 4.5 9 4.5C10.24 4.5 11.25 5.34 11.25 6.38C11.25 7.41 10.24 8.25 9 8.25ZM5.25 16.13C4.42 16.13 3.75 15.29 3.75 14.25C3.75 13.22 4.42 12.38 5.25 12.38C6.08 12.38 6.75 13.22 6.75 14.25C6.75 15.29 6.08 16.13 5.25 16.13ZM9 5.25C9.41 5.25 9.75 5.59 9.75 6C9.75 6.41 9.41 6.75 9 6.75C8.59 6.75 8.25 6.41 8.25 6C8.25 5.59 8.59 5.25 9 5.25ZM15.75 9C15.43 9 15.12 9.07 14.84 9.2C14.36 8.59 13.71 8.07 12.93 7.67C13.5 6.87 13.84 5.9 13.84 4.85C13.84 4.83 13.84 4.81 13.84 4.79C14.93 4.56 15.75 3.59 15.75 2.42C15.75 1.09 14.66 0 13.33 0C12.64 0 12 0.29 11.58 0.75C10.83 0.28 9.95 0 9 0C8.05 0 7.16 0.28 6.42 0.75C6 0.29 5.36 0 4.67 0C3.34 0 2.25 1.09 2.25 2.42C2.25 3.58 3.07 4.55 4.15 4.79C4.15 4.81 4.15 4.83 4.15 4.85C4.15 5.9 4.5 6.88 5.06 7.67C4.29 8.07 3.64 8.59 3.16 9.2C2.88 9.07 2.57 9 2.25 9C1 9 0 10 0 11.25C0 12.5 1 13.5 2.25 13.5C2.27 13.5 2.29 13.5 2.31 13.5C2.27 13.74 2.25 14 2.25 14.25C2.25 16.32 3.59 18 5.25 18C6.26 18 7.15 17.37 7.7 16.41C8.12 16.47 8.55 16.5 9 16.5C9.45 16.5 9.88 16.47 10.3 16.41C10.85 17.37 11.74 18 12.75 18C14.41 18 15.75 16.32 15.75 14.25C15.75 14 15.73 13.74 15.69 13.5C15.71 13.5 15.73 13.5 15.75 13.5C17 13.5 18 12.5 18 11.25C18 10 17 9 15.75 9Z" fill="white"/>
</svg>
