<svg width="107" height="107" viewBox="0 0 107 107" fill="none" xmlns="http://www.w3.org/2000/svg">
<rect width="107" height="107" fill="white"/>
<path d="M66.75 24.6562C66.1458 26.4062 65.6354 28.4167 65.2188 30.6875C64.8021 32.9375 64.5938 35.4167 64.5938 38.125C64.5938 40.0417 64.6562 41.9792 64.7812 43.9375C64.9062 45.8958 65.0104 48 65.0938 50.25C65.5938 49.9792 66.0312 49.8438 66.4062 49.8438C66.6979 49.8438 66.9583 49.9479 67.1875 50.1562C67.4167 50.3438 67.5312 50.5938 67.5312 50.9062C67.5312 51.3646 67.3229 51.7083 66.9062 51.9375C66.4896 52.1458 65.8958 52.4167 65.125 52.75V55.4688C65.125 60.2188 64.8438 64.5729 64.2812 68.5312C63.7396 72.5104 62.8542 75.9271 61.625 78.7812C60.3958 81.6562 58.7708 83.8958 56.75 85.5C54.75 87.1042 52.3021 87.9062 49.4062 87.9062C48.1771 87.9062 46.9688 87.6667 45.7812 87.1875C44.5938 86.7292 43.5312 86.0208 42.5938 85.0625C41.6771 84.1042 40.9271 82.9062 40.3438 81.4688C39.7812 80.0521 39.5 78.3854 39.5 76.4688C39.5 74.3646 39.8854 72.3542 40.6562 70.4375C41.4479 68.5417 42.4792 66.7604 43.75 65.0938C45.0417 63.4062 46.5104 61.8542 48.1562 60.4375C49.8021 59 51.4792 57.6979 53.1875 56.5312C54.9167 55.3646 56.6146 54.3438 58.2812 53.4688C59.9479 52.5938 61.4375 51.875 62.75 51.3125C62.7083 49.1667 62.6146 47.0208 62.4688 44.875C62.3229 42.7083 62.25 40.4896 62.25 38.2188C62.25 36.0938 62.375 34.0521 62.625 32.0938C62.8958 30.1146 63.2604 28.2708 63.7188 26.5625C62.9062 27.0208 62.0104 27.4479 61.0312 27.8438C60.0729 28.2396 59.0625 28.6146 58 28.9688C56.9375 29.3229 55.8438 29.6667 54.7188 30C53.6146 30.3333 52.5208 30.6562 51.4375 30.9688C49.7917 31.4479 48.2917 31.9792 46.9375 32.5625C45.6042 33.125 44.4583 33.7812 43.5 34.5312C42.5417 35.2812 41.7917 36.1354 41.25 37.0938C40.7292 38.0521 40.4688 39.1562 40.4688 40.4062C40.4688 41.8646 40.75 43.1042 41.3125 44.125C41.875 45.1458 42.6042 45.9792 43.5 46.625C44.4167 47.25 45.4375 47.7083 46.5625 48C47.7083 48.2708 48.8438 48.4062 49.9688 48.4062C50.3021 48.4062 50.5729 48.5208 50.7812 48.75C51.0104 48.9792 51.125 49.2604 51.125 49.5938C51.125 49.9271 51 50.2083 50.75 50.4375C50.5208 50.6458 50.2604 50.75 49.9688 50.75C48.5521 50.75 47.1354 50.5521 45.7188 50.1562C44.3229 49.7396 43.0625 49.1146 41.9375 48.2812C40.8125 47.4271 39.8958 46.3542 39.1875 45.0625C38.4792 43.7708 38.125 42.25 38.125 40.5C38.125 38.9792 38.4271 37.625 39.0312 36.4375C39.6562 35.2292 40.5208 34.1562 41.625 33.2188C42.7292 32.2812 44.0625 31.4583 45.625 30.75C47.1875 30.0417 48.9167 29.4167 50.8125 28.875C52.1875 28.4792 53.5521 28.0625 54.9062 27.625C56.2604 27.1875 57.5417 26.7396 58.75 26.2812C59.9792 25.8021 61.1042 25.3125 62.125 24.8125C63.1458 24.2917 64.0208 23.75 64.75 23.1875C65.5833 20.8542 66.4792 19.0625 67.4375 17.8125C68.3958 16.5417 69.3125 15.9062 70.1875 15.9062C70.375 15.9062 70.5729 15.9479 70.7812 16.0312C71.0104 16.0938 71.2188 16.2083 71.4062 16.375C71.6146 16.5208 71.7812 16.7292 71.9062 17C72.0312 17.2708 72.0938 17.6042 72.0938 18C72.0938 18.9167 71.6146 19.9583 70.6562 21.125C69.6979 22.2917 68.3958 23.4688 66.75 24.6562ZM62.7812 53.7812C61.5729 54.3021 60.2188 54.9688 58.7188 55.7812C57.2188 56.5938 55.6875 57.5417 54.125 58.625C52.5833 59.7083 51.0729 60.9062 49.5938 62.2188C48.1354 63.5312 46.8229 64.9375 45.6562 66.4375C44.5104 67.9583 43.5833 69.5521 42.875 71.2188C42.1875 72.9062 41.8438 74.6458 41.8438 76.4375C41.8438 77.9583 42.0625 79.2917 42.5 80.4375C42.9375 81.5833 43.5208 82.5417 44.25 83.3125C45 84.0833 45.8438 84.6562 46.7812 85.0312C47.7396 85.4271 48.7188 85.625 49.7188 85.625C51.4479 85.625 52.9688 85.2188 54.2812 84.4062C55.5938 83.6146 56.7292 82.5 57.6875 81.0625C58.6667 79.6458 59.4792 77.9479 60.125 75.9688C60.7708 74.0104 61.2917 71.8438 61.6875 69.4688C62.0833 67.1146 62.3646 64.6146 62.5312 61.9688C62.6979 59.3021 62.7812 56.5729 62.7812 53.7812Z" fill="#30627E"/>
</svg>
